# xmcd
#
# Track frame offsets:
#	150
#	11842
#	23193
#	33353
#	42416
#	53745
#	65269
#	77929
#	88634
#	100092
#	112141
#	122507
#	134770
#	145461
#	157329
#	168437
#
# Disc length: 2398 seconds
#
# Revision: 1
# Processed by: cddbd v1.5.2PL0 Copyright (c) Steve Scherf et al.
# Submitted via: audiograbber 1.83.01
#
DISCID=e3095c10
DTITLE=Kitty Wells - Kitty Wells Greatest Hits - The Queen of Country
DYEAR=2007
DGENRE=Country
TTITLE0=Amigo's Guitar
TTITLE1=Heartbreak U.S.A.
TTITLE2=I Can't Stop Lovin' You
TTITLE3=I'll Repossess My Heart
TTITLE4=It Wasn't God Who Made Honky Tonk Angels
TTITLE5=Left to Right
TTITLE6=Makin' Believe
TTITLE7=Mommy for a Day
TTITLE8=Password
TTITLE9=Paying for That Back Street Affair
TTITLE10=Searching (For Someone Like You)
TTITLE11=This White Circle On My Finger
TTITLE12=Unloved Unwanted
TTITLE13=We Missed You
TTITLE14=Kitty Wells Greatest Hits - The Queen of Country
TTITLE15=You Don't Hear
EXTD=
EXTT0=
EXTT1=
EXTT2=
EXTT3=
EXTT4=
EXTT5=
EXTT6=
EXTT7=
EXTT8=
EXTT9=
EXTT10=
EXTT11=
EXTT12=
EXTT13=
EXTT14=
EXTT15=
PLAYORDER=
